<svg width="206" height="56" viewBox="0 0 206 56" fill="none" xmlns="http://www.w3.org/2000/svg">
<path d="M15.7812 22.6758H11.6172V34H8.55762V22.6758H4.38086V20.3525H15.7812V22.6758ZM24.2231 34.2412C23.1736 34.2412 22.2173 34.0762 21.354 33.7461C20.4907 33.4076 19.7501 32.9336 19.1323 32.3242C18.5229 31.7148 18.049 30.987 17.7104 30.1406C17.3719 29.2943 17.2026 28.3633 17.2026 27.3477C17.2026 26.2897 17.3677 25.3206 17.6977 24.4404C18.0363 23.5518 18.5187 22.79 19.145 22.1553C19.7713 21.512 20.533 21.0127 21.4302 20.6572C22.3273 20.3018 23.3429 20.124 24.477 20.124C25.5265 20.124 26.4744 20.2975 27.3208 20.6445C28.1671 20.9915 28.8908 21.474 29.4917 22.0918C30.0926 22.7096 30.5539 23.4417 30.8755 24.2881C31.2055 25.126 31.3706 26.0443 31.3706 27.043C31.3706 28.1432 31.1971 29.1377 30.8501 30.0264C30.5031 30.915 30.0122 31.6725 29.3774 32.2988C28.7511 32.9167 27.9979 33.3949 27.1177 33.7334C26.2459 34.0719 25.2811 34.2412 24.2231 34.2412ZM24.3628 22.4473C23.7449 22.4473 23.1906 22.5615 22.6997 22.79C22.2088 23.0186 21.7941 23.3402 21.4555 23.7549C21.117 24.1696 20.8546 24.6689 20.6684 25.2529C20.4907 25.8369 20.4018 26.4844 20.4018 27.1953C20.4018 27.9147 20.4865 28.5664 20.6557 29.1504C20.8335 29.7259 21.0874 30.221 21.4175 30.6357C21.7475 31.042 22.1496 31.3594 22.6235 31.5879C23.1059 31.8079 23.6476 31.918 24.2485 31.918C24.8833 31.918 25.4461 31.8122 25.937 31.6006C26.4279 31.389 26.8384 31.0843 27.1684 30.6865C27.4985 30.2803 27.7482 29.7894 27.9175 29.2139C28.0867 28.6299 28.1714 27.9697 28.1714 27.2334C28.1714 26.4801 28.091 25.8073 27.9302 25.2148C27.7693 24.6224 27.5281 24.123 27.2065 23.7168C26.8934 23.3021 26.4956 22.9889 26.0132 22.7773C25.5392 22.5573 24.9891 22.4473 24.3628 22.4473ZM45.4492 30.001C45.4492 30.6104 45.3222 31.1605 45.0683 31.6514C44.8144 32.1423 44.4589 32.5654 44.0019 32.9209C43.5449 33.2679 42.9948 33.5345 42.3515 33.7207C41.7083 33.9069 41.0016 34 40.2314 34H35.0009V20.3525H40.0283C41.594 20.3525 42.7747 20.6318 43.5703 21.1904C44.3743 21.749 44.7763 22.5234 44.7763 23.5137C44.7763 24.2754 44.5351 24.9313 44.0527 25.4814C43.5787 26.0316 42.8932 26.4294 41.9961 26.6748V26.7129C42.5546 26.7721 43.0498 26.8991 43.4814 27.0938C43.913 27.2799 44.2727 27.5169 44.5605 27.8047C44.8567 28.0924 45.0768 28.4268 45.2207 28.8076C45.373 29.18 45.4492 29.5778 45.4492 30.001ZM41.5771 23.958C41.5771 23.374 41.3909 22.9805 41.0185 22.7773C40.6461 22.5658 40.0621 22.46 39.2666 22.46H38.0605V25.9004H39.2285C39.9902 25.9004 40.5699 25.7396 40.9677 25.418C41.374 25.0964 41.5771 24.6097 41.5771 23.958ZM42.2627 29.9756C42.2627 29.2985 42.0341 28.8034 41.5771 28.4902C41.1285 28.1771 40.443 28.0205 39.5205 28.0205H38.0605V31.8926H39.6982C40.5276 31.8926 41.1624 31.7445 41.6025 31.4482C42.0426 31.152 42.2627 30.6611 42.2627 29.9756ZM60.9243 34H57.6235L56.4809 30.8262H51.3393L50.2475 34H46.9467L52.2407 20.3525H55.6684L60.9243 34ZM55.7827 28.6299L54.2719 24.3008C54.1957 24.0807 54.1238 23.8438 54.0561 23.5898C53.9884 23.3275 53.9461 23.0947 53.9291 22.8916H53.8657C53.8403 23.0863 53.7937 23.3105 53.726 23.5645C53.6668 23.8099 53.5948 24.0638 53.5102 24.3262L52.0756 28.6299H55.7827ZM73.8222 24.5928C73.8222 25.2699 73.6868 25.8919 73.4159 26.459C73.1536 27.026 72.7812 27.5127 72.2988 27.9189C71.8163 28.3252 71.2323 28.6426 70.5468 28.8711C69.8613 29.0911 69.0995 29.2012 68.2616 29.2012H66.6747V34H63.6152V20.3525H68.3759C70.1617 20.3525 71.5159 20.7165 72.4384 21.4443C73.3609 22.1637 73.8222 23.2132 73.8222 24.5928ZM70.623 24.6816C70.623 23.9199 70.4029 23.3698 69.9628 23.0312C69.5312 22.6842 68.871 22.5107 67.9823 22.5107H66.6747V27.0557H67.8808C68.7779 27.0557 69.4592 26.861 69.9247 26.4717C70.3902 26.0824 70.623 25.4857 70.623 24.6816ZM77.3383 34V20.3525H80.3852V25.7988H82.81C83.5886 25.7988 84.2868 25.8919 84.9047 26.0781C85.5225 26.2643 86.043 26.5309 86.4662 26.8779C86.8979 27.2165 87.2237 27.627 87.4437 28.1094C87.6723 28.5918 87.7865 29.1335 87.7865 29.7344C87.7865 30.3861 87.6638 30.9743 87.4184 31.499C87.1814 32.0238 86.8386 32.4723 86.39 32.8447C85.9415 33.2171 85.3956 33.5049 84.7523 33.708C84.1091 33.9027 83.3855 34 82.5814 34H77.3383ZM80.3852 27.8936V31.9053H82.1625C83.0596 31.9053 83.7409 31.7487 84.2064 31.4355C84.6719 31.1224 84.9047 30.6061 84.9047 29.8867C84.9047 29.1758 84.6804 28.668 84.2318 28.3633C83.7833 28.0501 83.1104 27.8936 82.2133 27.8936H80.3852ZM92.6869 34H89.64V20.3525H92.6869V34ZM105.115 20.3525H107.946V28.0713C107.946 28.5452 107.937 28.9515 107.92 29.29C107.903 29.6201 107.882 29.874 107.857 30.0518H107.895C107.98 29.9079 108.081 29.7386 108.2 29.5439C108.327 29.3493 108.504 29.0954 108.733 28.7822L114.801 20.3525H118.064V34H115.233V26.1416C115.233 25.6592 115.237 25.2445 115.245 24.8975C115.262 24.542 115.284 24.2669 115.309 24.0723H115.258C115.19 24.2161 115.08 24.4108 114.928 24.6562C114.776 24.9017 114.59 25.1725 114.369 25.4688L108.187 34H105.115V20.3525ZM140.153 22.6758H135.989V34H132.929V22.6758H128.752V20.3525H140.153V22.6758ZM148.595 34.2412C147.545 34.2412 146.589 34.0762 145.725 33.7461C144.862 33.4076 144.122 32.9336 143.504 32.3242C142.894 31.7148 142.42 30.987 142.082 30.1406C141.743 29.2943 141.574 28.3633 141.574 27.3477C141.574 26.2897 141.739 25.3206 142.069 24.4404C142.408 23.5518 142.89 22.79 143.516 22.1553C144.143 21.512 144.904 21.0127 145.802 20.6572C146.699 20.3018 147.714 20.124 148.848 20.124C149.898 20.124 150.846 20.2975 151.692 20.6445C152.539 20.9915 153.262 21.474 153.863 22.0918C154.464 22.7096 154.925 23.4417 155.247 24.2881C155.577 25.126 155.742 26.0443 155.742 27.043C155.742 28.1432 155.568 29.1377 155.221 30.0264C154.874 30.915 154.384 31.6725 153.749 32.2988C153.123 32.9167 152.369 33.3949 151.489 33.7334C150.617 34.0719 149.652 34.2412 148.595 34.2412ZM148.734 22.4473C148.116 22.4473 147.562 22.5615 147.071 22.79C146.58 23.0186 146.165 23.3402 145.827 23.7549C145.488 24.1696 145.226 24.6689 145.04 25.2529C144.862 25.8369 144.773 26.4844 144.773 27.1953C144.773 27.9147 144.858 28.5664 145.027 29.1504C145.205 29.7259 145.459 30.221 145.789 30.6357C146.119 31.042 146.521 31.3594 146.995 31.5879C147.477 31.8079 148.019 31.918 148.62 31.918C149.255 31.918 149.818 31.8122 150.308 31.6006C150.799 31.389 151.21 31.0843 151.54 30.6865C151.87 30.2803 152.12 29.7894 152.289 29.2139C152.458 28.6299 152.543 27.9697 152.543 27.2334C152.543 26.4801 152.462 25.8073 152.302 25.2148C152.141 24.6224 151.9 24.123 151.578 23.7168C151.265 23.3021 150.867 22.9889 150.385 22.7773C149.911 22.5573 149.36 22.4473 148.734 22.4473ZM170.303 34H167.256V28.3506C166.562 28.6976 165.872 28.9684 165.187 29.1631C164.51 29.3577 163.795 29.4551 163.041 29.4551C161.704 29.4551 160.68 29.125 159.969 28.4648C159.267 27.8047 158.915 26.8187 158.915 25.5068V20.3525H161.962V25.1133C161.962 25.8327 162.119 26.3617 162.432 26.7002C162.754 27.0303 163.257 27.1953 163.943 27.1953C164.476 27.1953 165.013 27.1149 165.555 26.9541C166.105 26.7933 166.672 26.5563 167.256 26.2432V20.3525H170.303V34ZM186.641 34H183.011L178.631 28.0586C178.571 27.9824 178.495 27.8724 178.402 27.7285C178.309 27.5846 178.229 27.4408 178.161 27.2969H178.11V34H175.051V20.3525H178.11V26.7891H178.161C178.203 26.7044 178.271 26.5902 178.364 26.4463C178.457 26.3024 178.55 26.167 178.643 26.04L182.807 20.3525H186.197L181.208 26.8906L186.641 34ZM201.202 34H197.902L196.759 30.8262H191.617L190.526 34H187.225L192.519 20.3525H195.947L201.202 34ZM196.061 28.6299L194.55 24.3008C194.474 24.0807 194.402 23.8438 194.334 23.5898C194.267 23.3275 194.224 23.0947 194.207 22.8916H194.144C194.118 23.0863 194.072 23.3105 194.004 23.5645C193.945 23.8099 193.873 24.0638 193.788 24.3262L192.354 28.6299H196.061Z" fill="white"/>
</svg>
